<mxfile host="app.diagrams.net" modified="2023-08-09T15:28:06.905Z" agent="Mozilla/5.0 (Windows NT 10.0; Win64; x64) AppleWebKit/537.36 (KHTML, like Gecko) Chrome/115.0.0.0 Safari/537.36" etag="I05EHk5ZGeDXORqUvGUv" version="21.6.5" type="github">
  <diagram id="C5RBs43oDa-KdzZeNtuy" name="Page-1">
    <mxGraphModel dx="1434" dy="796" grid="1" gridSize="10" guides="1" tooltips="1" connect="1" arrows="1" fold="1" page="1" pageScale="1" pageWidth="827" pageHeight="1169" math="0" shadow="0">
      <root>
        <mxCell id="WIyWlLk6GJQsqaUBKTNV-0" />
        <mxCell id="WIyWlLk6GJQsqaUBKTNV-1" parent="WIyWlLk6GJQsqaUBKTNV-0" />
        <mxCell id="89uMXsv4ONSeUEbtRjta-0" value="SearchParams" style="swimlane;fontStyle=1;align=center;verticalAlign=top;childLayout=stackLayout;horizontal=1;startSize=26;horizontalStack=0;resizeParent=1;resizeParentMax=0;resizeLast=0;collapsible=1;marginBottom=0;whiteSpace=wrap;html=1;" vertex="1" parent="WIyWlLk6GJQsqaUBKTNV-1">
          <mxGeometry x="10" y="80" width="230" height="260" as="geometry" />
        </mxCell>
        <mxCell id="89uMXsv4ONSeUEbtRjta-1" value="+ MinStatusCodeWo: string&lt;br&gt;+ InactiveY55MillCertPOStatus: string&lt;br&gt;+ OrderNo: int&lt;br&gt;+ OrderType: string&lt;br&gt;+ orderRecordType&lt;br&gt;+ orderGrade: string&lt;br&gt;+ orderGradeRevNum: int&lt;br&gt;+ orderRecordType: string" style="text;strokeColor=none;fillColor=none;align=left;verticalAlign=top;spacingLeft=4;spacingRight=4;overflow=hidden;rotatable=0;points=[[0,0.5],[1,0.5]];portConstraint=eastwest;whiteSpace=wrap;html=1;" vertex="1" parent="89uMXsv4ONSeUEbtRjta-0">
          <mxGeometry y="26" width="230" height="194" as="geometry" />
        </mxCell>
        <mxCell id="89uMXsv4ONSeUEbtRjta-2" value="" style="line;strokeWidth=1;fillColor=none;align=left;verticalAlign=middle;spacingTop=-1;spacingLeft=3;spacingRight=3;rotatable=0;labelPosition=right;points=[];portConstraint=eastwest;strokeColor=inherit;" vertex="1" parent="89uMXsv4ONSeUEbtRjta-0">
          <mxGeometry y="220" width="230" height="8" as="geometry" />
        </mxCell>
        <mxCell id="89uMXsv4ONSeUEbtRjta-3" value="+&amp;nbsp;SearchParams: constructor" style="text;strokeColor=none;fillColor=none;align=left;verticalAlign=top;spacingLeft=4;spacingRight=4;overflow=hidden;rotatable=0;points=[[0,0.5],[1,0.5]];portConstraint=eastwest;whiteSpace=wrap;html=1;" vertex="1" parent="89uMXsv4ONSeUEbtRjta-0">
          <mxGeometry y="228" width="230" height="32" as="geometry" />
        </mxCell>
        <mxCell id="89uMXsv4ONSeUEbtRjta-4" value="FEWB Rebuild by WO" style="text;strokeColor=none;fillColor=none;html=1;fontSize=24;fontStyle=1;verticalAlign=middle;align=center;" vertex="1" parent="WIyWlLk6GJQsqaUBKTNV-1">
          <mxGeometry x="364" y="20" width="100" height="40" as="geometry" />
        </mxCell>
        <mxCell id="89uMXsv4ONSeUEbtRjta-5" value="WorkOrderResult" style="swimlane;fontStyle=1;align=center;verticalAlign=top;childLayout=stackLayout;horizontal=1;startSize=26;horizontalStack=0;resizeParent=1;resizeParentMax=0;resizeLast=0;collapsible=1;marginBottom=0;whiteSpace=wrap;html=1;" vertex="1" parent="WIyWlLk6GJQsqaUBKTNV-1">
          <mxGeometry x="280" y="80" width="240" height="190" as="geometry" />
        </mxCell>
        <mxCell id="89uMXsv4ONSeUEbtRjta-6" value="+ gradeType: string&lt;br&gt;+ orderNumber: int&lt;br&gt;+ orderType: string&lt;br&gt;+ orderRecordType: string&lt;br&gt;+ orderGrade: sring&lt;br&gt;+ orderRevisionNo: int&lt;br&gt;+ Heats: List&amp;lt;Heat&amp;gt;" style="text;strokeColor=none;fillColor=none;align=left;verticalAlign=top;spacingLeft=4;spacingRight=4;overflow=hidden;rotatable=0;points=[[0,0.5],[1,0.5]];portConstraint=eastwest;whiteSpace=wrap;html=1;" vertex="1" parent="89uMXsv4ONSeUEbtRjta-5">
          <mxGeometry y="26" width="240" height="124" as="geometry" />
        </mxCell>
        <mxCell id="89uMXsv4ONSeUEbtRjta-7" value="" style="line;strokeWidth=1;fillColor=none;align=left;verticalAlign=middle;spacingTop=-1;spacingLeft=3;spacingRight=3;rotatable=0;labelPosition=right;points=[];portConstraint=eastwest;strokeColor=inherit;" vertex="1" parent="89uMXsv4ONSeUEbtRjta-5">
          <mxGeometry y="150" width="240" height="8" as="geometry" />
        </mxCell>
        <mxCell id="89uMXsv4ONSeUEbtRjta-8" value="+ WorkOrderResult: constructor" style="text;strokeColor=none;fillColor=none;align=left;verticalAlign=top;spacingLeft=4;spacingRight=4;overflow=hidden;rotatable=0;points=[[0,0.5],[1,0.5]];portConstraint=eastwest;whiteSpace=wrap;html=1;" vertex="1" parent="89uMXsv4ONSeUEbtRjta-5">
          <mxGeometry y="158" width="240" height="32" as="geometry" />
        </mxCell>
        <mxCell id="89uMXsv4ONSeUEbtRjta-9" value="Heat" style="swimlane;fontStyle=1;align=center;verticalAlign=top;childLayout=stackLayout;horizontal=1;startSize=26;horizontalStack=0;resizeParent=1;resizeParentMax=0;resizeLast=0;collapsible=1;marginBottom=0;whiteSpace=wrap;html=1;" vertex="1" parent="WIyWlLk6GJQsqaUBKTNV-1">
          <mxGeometry x="560" y="80" width="230" height="160" as="geometry" />
        </mxCell>
        <mxCell id="89uMXsv4ONSeUEbtRjta-10" value="+ heatGrade: string&lt;br style=&quot;border-color: var(--border-color);&quot;&gt;+ heatRecordType: string&lt;br style=&quot;border-color: var(--border-color);&quot;&gt;+ heatGradeRevNum: int&lt;br style=&quot;border-color: var(--border-color);&quot;&gt;+ heat: int" style="text;strokeColor=none;fillColor=none;align=left;verticalAlign=top;spacingLeft=4;spacingRight=4;overflow=hidden;rotatable=0;points=[[0,0.5],[1,0.5]];portConstraint=eastwest;whiteSpace=wrap;html=1;" vertex="1" parent="89uMXsv4ONSeUEbtRjta-9">
          <mxGeometry y="26" width="230" height="94" as="geometry" />
        </mxCell>
        <mxCell id="89uMXsv4ONSeUEbtRjta-11" value="" style="line;strokeWidth=1;fillColor=none;align=left;verticalAlign=middle;spacingTop=-1;spacingLeft=3;spacingRight=3;rotatable=0;labelPosition=right;points=[];portConstraint=eastwest;strokeColor=inherit;" vertex="1" parent="89uMXsv4ONSeUEbtRjta-9">
          <mxGeometry y="120" width="230" height="8" as="geometry" />
        </mxCell>
        <mxCell id="89uMXsv4ONSeUEbtRjta-12" value="+ method(type): type" style="text;strokeColor=none;fillColor=none;align=left;verticalAlign=top;spacingLeft=4;spacingRight=4;overflow=hidden;rotatable=0;points=[[0,0.5],[1,0.5]];portConstraint=eastwest;whiteSpace=wrap;html=1;" vertex="1" parent="89uMXsv4ONSeUEbtRjta-9">
          <mxGeometry y="128" width="230" height="32" as="geometry" />
        </mxCell>
      </root>
    </mxGraphModel>
  </diagram>
</mxfile>
